<svg width="30" height="30" viewBox="0 0 30 30" fill="none" xmlns="http://www.w3.org/2000/svg">
<g id="Vector">
<path d="M15 10C12.2386 10 10 12.2386 10 15C10 17.7614 12.2386 20 15 20C17.7614 20 20 17.7614 20 15C20 12.2386 17.7614 10 15 10Z" fill="#8B7157"/>
<path fill-rule="evenodd" clip-rule="evenodd" d="M9 0C4.02944 0 0 4.02944 0 9V21C0 25.9706 4.02944 30 9 30H21C25.9706 30 30 25.9706 30 21V9C30 4.02944 25.9706 0 21 0H9ZM8 15C8 11.134 11.134 8 15 8C18.866 8 22 11.134 22 15C22 18.866 18.866 22 15 22C11.134 22 8 18.866 8 15ZM22 8H24V6H22V8Z" fill="#8B7157"/>
</g>
</svg>
