<svg width="30" height="30" viewBox="0 0 30 30" fill="none" xmlns="http://www.w3.org/2000/svg">
<g id="phone">
<path id="Vector" d="M5 0C2.23858 0 0 2.23858 0 5V9C0 20.598 9.40202 30 21 30H25C27.7614 30 30 27.7614 30 25V22.2361C30 21.0998 29.358 20.061 28.3416 19.5528L23.5098 17.1369C21.8769 16.3204 19.8994 17.1395 19.3221 18.8715L18.7266 20.6581C18.5003 21.3369 17.8039 21.741 17.1023 21.6007C12.7106 20.7223 9.27769 17.2894 8.39935 12.8977C8.25902 12.1961 8.66312 11.4997 9.34195 11.2734L11.5592 10.5344C13.0464 10.0386 13.9012 8.4815 13.521 6.9607L12.3489 2.27239C12.015 0.936892 10.815 0 9.43845 0H5Z" fill="#A78768"/>
</g>
</svg>
