<svg width="30" height="31" viewBox="0 0 30 31" fill="none" xmlns="http://www.w3.org/2000/svg">
<g id="pin">
<g id="Vector">
<path d="M12 13.8256C12 12.172 13.3437 10.8282 15 10.8282C16.6563 10.8282 18 12.172 18 13.8256C18 15.4793 16.6563 16.8231 15 16.8231C13.3437 16.8231 12 15.4793 12 13.8256Z" fill="#A78768"/>
<path fill-rule="evenodd" clip-rule="evenodd" d="M2 13.8256C2 6.65104 7.82234 0.833496 15 0.833496C22.1777 0.833496 28 6.65104 28 13.8256C28 19.1737 25.3234 23.4106 22.4569 26.2753C21.0203 27.711 19.5155 28.824 18.2265 29.5837C17.5823 29.9633 16.9803 30.2617 16.457 30.4682C15.9629 30.6633 15.4442 30.8152 15 30.8152C14.5558 30.8152 14.0371 30.6633 13.543 30.4682C13.0197 30.2617 12.4177 29.9633 11.7735 29.5837C10.4845 28.824 8.97968 27.711 7.54312 26.2753C4.67658 23.4106 2 19.1737 2 13.8256ZM15 8.82825C12.2403 8.82825 10 11.0662 10 13.8256C10 16.5851 12.2403 18.8231 15 18.8231C17.7597 18.8231 20 16.5851 20 13.8256C20 11.0662 17.7597 8.82825 15 8.82825Z" fill="#A78768"/>
</g>
</g>
</svg>
