<svg width="30" height="26" viewBox="0 0 30 26" fill="none" xmlns="http://www.w3.org/2000/svg">
<path id="Vector" d="M29.9547 0.933885C29.9281 0.532743 29.6638 0.186528 29.2839 0.0550389C28.904 -0.0764504 28.4823 0.0323537 28.2134 0.331232C27.5222 1.09955 26.6486 1.62017 25.762 1.85755C24.5289 0.706306 22.872 3.93667e-05 21.0513 3.93667e-05C17.1436 3.93667e-05 13.9785 3.1723 13.9785 7.08223V7.96185C7.99597 7.49952 4.79676 2.95497 3.9335 0.649391C3.79396 0.276719 3.44674 0.0222469 3.04935 0.00141105C2.65196 -0.0194248 2.28003 0.197342 2.10229 0.553378C0.00883627 4.74675 -0.313715 8.81393 1.2078 12.2773C2.54064 15.3111 5.22111 17.7278 9.02017 19.3289C7.29358 20.5525 4.38758 22 1.00008 22C0.559542 22 0.170899 22.2883 0.043089 22.7099C-0.0847216 23.1315 0.078411 23.5871 0.444784 23.8317C3.69299 26.0005 7.09729 26.0003 10.2637 26L10.3606 26C20.0819 26 27.9599 18.1076 27.9599 8.37502V7.41844C28.6868 6.67969 29.2527 5.92345 29.5995 4.9458C29.9865 3.85491 30.0645 2.59 29.9547 0.933885Z" fill="#8B7157"/>
</svg>
